<svg xmlns="http://www.w3.org/2000/svg" width="15" height="15" viewBox="0 0 15 15">
    <path fill="#2F343B" fill-rule="evenodd" d="M12.067 2.903a2.482 2.482 0 0 0-3.507 0L6.297 5.166 5.223 4.091l2.262-2.263a4.001 4.001 0 0 1 5.657 0 4.001 4.001 0 0 1 0 5.657L10.88 9.748 9.805 8.673l2.262-2.263a2.482 2.482 0 0 0 0-3.507zm-1.753 2.885l-4.526 4.526-1.131-1.132 4.525-4.525 1.132 1.131zM1.828 7.485l2.263-2.262 1.075 1.074L2.903 8.56a2.482 2.482 0 0 0 0 3.507c.968.968 2.54.968 3.507 0l2.263-2.262 1.075 1.074-2.263 2.263a4.001 4.001 0 0 1-5.657 0 4.001 4.001 0 0 1 0-5.657z"/>
</svg>
