<svg xmlns="http://www.w3.org/2000/svg" width="98" height="23" viewBox="0 0 98 23">
    <g fill="none" fill-rule="evenodd">
        <path fill="#1F2226" d="M32.569 2.363V22H29V2.363h3.569zM41.64 22h-3.548V2.363h3.185l.262 2.58C42.884 2.982 44.877 2 47.518 2c2.641 0 4.432 1.21 5.373 3.629C54.25 3.209 56.251 2 58.9 2c2.057 0 3.65.696 4.778 2.087 1.13 1.39 1.694 3.45 1.694 6.18V22h-3.569V10.226c0-1.895-.322-3.256-.967-4.083-.645-.826-1.61-1.24-2.893-1.24-1.284 0-2.306.414-3.065 1.24-.76.827-1.206 1.905-1.34 3.236V22h-3.61V10.226c0-1.828-.332-3.172-.998-4.032-.665-.86-1.656-1.29-2.973-1.29-2.07 0-3.508.853-4.315 2.56V22zm32.48 0h-3.548V2.363h3.185l.262 2.58C75.364 2.982 77.357 2 79.998 2c2.641 0 4.432 1.21 5.373 3.629C86.729 3.209 88.731 2 91.379 2c2.056 0 3.65.696 4.778 2.087 1.13 1.39 1.694 3.45 1.694 6.18V22h-3.569V10.226c0-1.895-.322-3.256-.967-4.083-.646-.826-1.61-1.24-2.894-1.24-1.283 0-2.305.414-3.064 1.24-.76.827-1.206 1.905-1.34 3.236V22h-3.61V10.226c0-1.828-.332-3.172-.998-4.032-.665-.86-1.656-1.29-2.974-1.29-2.07 0-3.508.853-4.314 2.56V22z"/>
        <g transform="translate(0 1)">
            <path fill="#3681A8" fill-rule="nonzero" d="M9.23 21.236L.765 12.77a.5.5 0 0 1 .353-.853h8.966v8.966a.5.5 0 0 1-.854.353zM.767 8.316L9.233-.149a.5.5 0 0 1 .854.353V9.17H1.12a.5.5 0 0 1-.354-.854z"/>
            <rect width="5.417" height="5.417" x="12.833" y="3.75" fill="#1F2226" rx=".5"/>
            <path fill="#3681A8" fill-rule="nonzero" d="M22.153 12.77l-8.466 8.466a.5.5 0 0 1-.854-.353v-8.966H21.8a.5.5 0 0 1 .354.853z"/>
        </g>
    </g>
</svg>
