<svg xmlns="http://www.w3.org/2000/svg" width="16" height="17" viewBox="0 0 16 17">
    <path fill="#FFF" fill-rule="evenodd" d="M14.113 9.03a6.41 6.41 0 0 0 .057-.806c0-.28-.025-.542-.057-.806l1.735-1.357a.415.415 0 0 0 .099-.526l-1.645-2.846a.413.413 0 0 0-.502-.18l-2.048.822a6.009 6.009 0 0 0-1.39-.806L10.05.345A.401.401 0 0 0 9.647 0h-3.29a.401.401 0 0 0-.403.345l-.313 2.18a6.319 6.319 0 0 0-1.39.806l-2.047-.823a.401.401 0 0 0-.502.181L.057 5.535a.405.405 0 0 0 .099.526L1.89 7.418a6.522 6.522 0 0 0-.058.806c0 .272.025.543.058.806L.156 10.387a.415.415 0 0 0-.099.527l1.645 2.845c.099.181.32.247.502.181l2.047-.822c.428.329.889.6 1.39.806l.313 2.18a.401.401 0 0 0 .403.345h3.29a.401.401 0 0 0 .403-.346l.312-2.179a6.319 6.319 0 0 0 1.39-.806l2.048.822c.19.074.403 0 .502-.18l1.645-2.846a.415.415 0 0 0-.1-.527L14.114 9.03zm-6.111 2.073a2.882 2.882 0 0 1-2.879-2.879 2.882 2.882 0 0 1 2.879-2.878 2.882 2.882 0 0 1 2.878 2.878 2.882 2.882 0 0 1-2.878 2.879z"/>
</svg>
